HIERARCHY
ROOT Hips
{
	OFFSET 0.000000 0.000000 0.000000 
	CHANNELS 6 Xposition Yposition Zposition Yrotation Zrotation Xrotation 
	JOINT Lumbar
	{
		OFFSET 0.000000 0.000000 0.000000 
		CHANNELS 3 Zrotation Xrotation Yrotation
		JOINT Neck
		{
			OFFSET 0.000000 0.445665 0.000000 
			CHANNELS 3 Zrotation Xrotation Yrotation
			End Site
			{
				OFFSET 0.000000 0.227535 0.000000 
			}
		}
		JOINT RightShoulder
		{
			OFFSET 0.019635 0.377685 0.194865 
			CHANNELS 3 Zrotation Xrotation Yrotation
			JOINT RightElbow
			{
				OFFSET 0.000000 -0.243375 0.000000 
				CHANNELS 2 Zrotation Yrotation
				JOINT RightWrist
				{
					OFFSET 0.000000 -0.264825 0.000000 
					CHANNELS 2 Zrotation Xrotation
					End Site
					{
						OFFSET 0.006600 -0.176220 0.000990 
					}
				}
			}
		}
		JOINT LeftShoulder
		{
			OFFSET 0.019635 0.377685 -0.194865 
			CHANNELS 3 Zrotation Xrotation Yrotation
			JOINT LeftElbow
			{
				OFFSET 0.000000 -0.243375 0.000000 
				CHANNELS 2 Zrotation Yrotation
				JOINT LeftWrist
				{
					OFFSET 0.000000 -0.264825 0.000000 
					CHANNELS 2 Zrotation Xrotation
					End Site
					{
						OFFSET 0.006600 -0.176220 -0.000990 
					}
				}
			}
		}
	}
	JOINT RightHip
	{
		OFFSET 0.052140 -0.069960 0.075570 
		CHANNELS 3 Zrotation Xrotation Yrotation
		JOINT RightKnee
		{
			OFFSET 0.000000 -0.402270 0.000000 
			CHANNELS 1 Zrotation
			JOINT RightAnkle
			{
				OFFSET 0.000000 -0.404085 0.000000 
				CHANNELS 3 Zrotation Xrotation Yrotation
				End Site
				{
					OFFSET 0.204105 -0.089430 0.008415 
				}
			}
		}
	}
	JOINT LeftHip
	{
		OFFSET 0.052140 -0.069960 -0.075570 
		CHANNELS 3 Zrotation Xrotation Yrotation
		JOINT LeftKnee
		{
			OFFSET 0.000000 -0.402270 0.000000 
			CHANNELS 1 Zrotation
			JOINT LeftAnkle
			{
				OFFSET 0.000000 -0.404085 0.000000 
				CHANNELS 3 Zrotation Xrotation Yrotation
				End Site
				{
					OFFSET 0.204105 -0.089430 -0.008415 
				}
			}
		}
	}
}
MOTION
Frames: 26
Frame Time: 0.02
-0 0.95578 0 181.78133 0 -3.83297 0.86317 3.18826 -6.79839 -38.31001 4.76215 3.96532 -2.68593 -73.18345 -75.7593 20.86692 77.47062 -18.27153 -2.86218 7.31641 61.43324 62.69999 21.97682 -76.12767 -30.4987 3.01616 -2.7876 6.1533 3.98433 -6.64171 -2.66544 -3.75253 -7.72928 -0.62867 3.99937 2.71962 -7.78571 5.17653 2.1705 0.02458
-2e-05 0.95578 -5e-05 181.78351 0 -3.83292 0.85927 3.17586 -6.70226 -38.31823 4.81136 3.89445 -2.63835 -73.17021 -75.69621 20.87604 77.42623 -18.24637 -2.86364 7.39734 61.41556 62.60786 21.9606 -76.08622 -30.46837 3.05951 -2.79724 6.1545 3.96751 -6.62534 -2.66785 -3.7553 -7.7128 -0.63299 4.0027 2.72028 -7.77841 5.17577 2.17323 0.02549
-4e-05 0.95577 -9e-05 181.78579 0 -3.83285 0.85536 3.16348 -6.60674 -38.32637 4.86023 3.824 -2.59078 -73.15699 -75.63315 20.88524 77.38174 -18.22147 -2.86505 7.47795 61.39797 62.51611 21.94444 -76.04508 -30.43824 3.10258 -2.80677 6.15568 3.95101 -6.60918 -2.6702 -3.75806 -7.69661 -0.63716 4.00598 2.72074 -7.77134 5.17506 2.17598 0.02645
-6e-05 0.95576 -0.00014 181.78854 0 -3.83274 0.85143 3.15112 -6.51305 -38.3343 4.90817 3.75462 -2.54282 -73.1438 -75.56971 20.89479 77.33579 -18.19749 -2.86601 7.55803 61.38057 62.42508 21.92831 -76.0052 -30.40852 3.1447 -2.81589 6.15685 3.93558 -6.59381 -2.67229 -3.76081 -7.68158 -0.64072 4.00915 2.72022 -7.76515 5.17455 2.1789 0.0277
-9e-05 0.95576 -0.00019 181.78889 0 -3.83286 0.84765 3.13874 -6.41004 -38.34339 4.96096 3.67971 -2.49694 -73.13055 -75.50846 20.90245 77.29684 -18.16878 -2.86901 7.64091 61.36216 62.33034 21.91197 -75.95915 -30.37654 3.19155 -2.82711 6.15813 3.91444 -6.57437 -2.67569 -3.76364 -7.66062 -0.64745 4.01292 2.72464 -7.75433 5.173 2.18099 0.02755
-0.0001 0.95575 -0.00023 181.79425 0 -3.83248 0.84352 3.12635 -6.3266 -38.34998 5.00351 3.61647 -2.44669 -73.11735 -75.44251 20.91409 77.24363 -18.15003 -2.86793 7.71777 61.34592 62.24349 21.89611 -75.92589 -30.34943 3.22854 -2.83389 6.15914 3.90541 -6.56349 -2.67636 -3.76628 -7.65209 -0.64749 4.01541 2.71877 -7.75329 5.1736 2.1848 0.03026
-6e-05 0.95573 -0.00024 181.81474 0 -3.83079 0.83867 3.114 -6.29896 -38.34992 5.0174 3.58557 -2.38278 -73.10473 -75.36225 20.93757 77.14349 -18.16008 -2.85299 7.77955 61.33538 62.17732 21.88107 -75.93087 -30.33492 3.23658 -2.82807 6.15981 3.93077 -6.5774 -2.66898 -3.76868 -7.67993 -0.62824 4.01451 2.68179 -7.78066 5.18079 2.19394 0.04211
0 0.95572 -0.00025 181.8401 0 -3.82857 0.83339 3.10159 -6.29076 -38.34725 5.02104 3.5664 -2.3147 -73.0921 -75.27739 20.96494 77.03014 -18.18001 -2.83435 7.83495 61.32705 62.11931 21.86662 -75.94829 -30.32548 3.23493 -2.81783 6.16012 3.96817 -6.5997 -2.65895 -3.77085 -7.71992 -0.60232 4.01228 2.63478 -7.81773 5.19005 2.20476 0.05671
5e-05 0.9557 -0.00026 181.86241 0 -3.82654 0.82817 3.08916 -6.27241 -38.34563 5.02961 3.54168 -2.24943 -73.07912 -75.19537 20.99 76.92775 -18.19457 -2.81913 7.89243 61.31796 62.05811 21.85215 -75.95806 -30.31428 3.23886 -2.80978 6.16039 3.9995 -6.61749 -2.65047 -3.77297 -7.75312 -0.58002 4.01062 2.5942 -7.84938 5.19793 2.21442 0.06917
0.0001 0.95568 -0.00027 181.88818 0 -3.82476 0.82362 3.07702 -6.25941 -38.34471 5.03699 3.51778 -2.18021 -73.06747 -75.11019 21.01729 76.80483 -18.21271 -2.79677 7.95368 61.30798 61.99443 21.83648 -75.97605 -30.3008 3.23798 -2.80088 6.16166 4.03347 -6.63843 -2.64049 -3.77576 -7.7919 -0.55542 4.00919 2.54612 -7.88502 5.20758 2.22563 0.08506
0.00016 0.95567 -0.00027 181.90797 0 -3.82231 0.81744 3.06418 -6.24017 -38.34158 5.04446 3.49511 -2.11835 -73.05326 -75.03053 21.04092 76.72104 -18.22593 -2.78814 8.00519 61.30019 61.93821 21.82364 -75.98015 -30.29324 3.24464 -2.79281 6.1606 4.06467 -6.65455 -2.63304 -3.77709 -7.82168 -0.53378 4.00686 2.51077 -7.91502 5.21413 2.23416 0.09488
0.00025 0.95567 -0.00026 181.90943 0 -3.81831 0.80811 3.04991 -6.19627 -38.33412 5.05445 3.47164 -2.07665 -73.03023 -74.96679 21.05304 76.753 -18.22126 -2.82052 8.03477 61.29985 61.89746 21.81692 -75.94034 -30.30085 3.27601 -2.78717 6.15437 4.08648 -6.65743 -2.63288 -3.77444 -7.82583 -0.52405 4.00331 2.51747 -7.92376 5.2108 2.23357 0.08356
0.00034 0.95567 -0.00024 181.90482 0 -3.81363 0.79691 3.03486 -6.14583 -38.32433 5.06494 3.44919 -2.0427 -73.00496 -74.9088 21.06143 76.82408 -18.2116 -2.86648 8.05426 61.30135 61.86441 21.8133 -75.8866 -30.31419 3.315 -2.78269 6.14557 4.10488 -6.65481 -2.63542 -3.77032 -7.82015 -0.51715 3.99873 2.53658 -7.92704 5.20439 2.23043 0.06664
0.00044 0.95567 -0.00023 181.90342 0 -3.80913 0.78577 3.01983 -6.10021 -38.31485 5.07534 3.42723 -2.00597 -72.98186 -74.84849 21.07181 76.87416 -18.20551 -2.90475 8.076 61.30068 61.83008 21.80935 -75.8409 -30.32492 3.3495 -2.77835 6.13719 4.12402 -6.6533 -2.63693 -3.76693 -7.81743 -0.50754 3.99403 2.54698 -7.93507 5.19995 2.22933 0.05479
0.00052 0.95567 -0.00023 181.90032 0 -3.8051 0.778 3.00615 -6.04775 -38.30842 5.08475 3.4019 -1.96601 -72.9539 -74.7869 21.08106 76.93687 -18.19445 -2.94916 8.10691 61.30549 61.78719 21.80105 -75.78842 -30.33601 3.38802 -2.77113 6.13199 4.1469 -6.65786 -2.63746 -3.76333 -7.82125 -0.50359 3.99182 2.56963 -7.93415 5.19331 2.22466 0.03273
0.00064 0.95567 -0.00018 181.89921 0 -3.79998 0.76271 2.98954 -6.0074 -38.29516 5.09652 3.38337 -1.93462 -72.93553 -74.72926 21.09178 76.98338 -18.19217 -2.98422 8.11699 61.29957 61.76321 21.80231 -75.74658 -30.34744 3.42006 -2.77011 6.11952 4.16115 -6.64848 -2.64077 -3.75971 -7.80927 -0.48876 3.9841 2.5703 -7.95011 5.19034 2.22668 0.03016
0.00084 0.95567 0 181.90547 0 -3.79186 0.72775 2.9644 -6.005 -38.26303 5.11438 3.38584 -1.9254 -72.94432 -74.68226 21.10707 76.97001 -18.21755 -2.98873 8.06688 61.26094 61.79503 21.83117 -75.73792 -30.36015 3.43282 -2.78688 6.0881 4.15115 -6.60091 -2.65066 -3.75743 -7.7533 -0.44185 3.96221 2.50347 -8.01675 5.19956 2.24897 0.08615
0.00108 0.95567 0.00024 181.91382 0 -3.78273 0.68517 2.93646 -6.01444 -38.22423 5.13469 3.39463 -1.92435 -72.9629 -74.63873 21.12405 76.94003 -18.25154 -2.98361 7.99704 61.21185 61.8446 21.86927 -75.74055 -30.37268 3.43872 -2.80963 6.04936 4.13271 -6.53978 -2.66333 -3.75501 -7.68219 -0.38421 3.93468 2.41486 -8.09993 5.21233 2.27785 0.16132
0.00131 0.95568 0.00047 181.92096 0 -3.77413 0.64568 2.91017 -6.01633 -38.18884 5.15412 3.39876 -1.91949 -72.97684 -74.59301 21.14048 76.92142 -18.28006 -2.98394 7.93977 61.16932 61.88238 21.90178 -75.73741 -30.38404 3.44758 -2.82912 6.01366 4.11893 -6.48538 -2.67507 -3.75191 -7.61983 -0.33231 3.90922 2.33868 -8.17376 5.22262 2.30294 0.22548
0.00152 0.95568 0.00064 181.9291 0 -3.76507 0.60773 2.88222 -6.02685 -38.15168 5.1726 3.41024 -1.91585 -72.99123 -74.55052 21.15575 76.88824 -18.31479 -2.98045 7.86734 61.1195 61.93599 21.93995 -75.73554 -30.4007 3.45757 -2.85116 5.97908 4.10168 -6.42793 -2.6856 -3.75175 -7.54942 -0.27668 3.88577 2.25213 -8.2554 5.23646 2.33131 0.29909
0.00177 0.95569 0.00094 181.93558 0 -3.75688 0.56474 2.85714 -6.02268 -38.11675 5.19361 3.40819 -1.91085 -73.00736 -74.50147 21.17404 76.88069 -18.33892 -2.98215 7.82142 61.082 61.96095 21.96886 -75.73506 -30.40642 3.46319 -2.869 5.94048 4.08955 -6.37424 -2.69915 -3.74566 -7.49212 -0.22645 3.85682 2.18198 -8.32444 5.2438 2.35445 0.3577
0.00207 0.95572 0.00157 181.93828 0 -3.7501 0.51007 2.83988 -5.97156 -38.08893 5.22137 3.36454 -1.90574 -73.02294 -74.43854 21.19889 76.95011 -18.32976 -3.003 7.85795 61.08412 61.90054 21.96693 -75.72537 -30.3802 3.46104 -2.87644 5.89228 4.09522 -6.32935 -2.72127 -3.7214 -7.47661 -0.19193 3.81394 2.16116 -8.35774 5.23208 2.36155 0.36967
0.00239 0.95576 0.00234 181.93905 0 -3.74446 0.45053 2.82574 -5.9059 -38.06371 5.25155 3.30752 -1.89788 -73.04043 -74.36789 21.22701 77.04524 -18.31 -3.02893 7.92108 61.09847 61.81102 21.95592 -75.71848 -30.34326 3.45428 -2.87898 5.84033 4.10618 -6.28958 -2.74616 -3.69151 -7.47466 -0.16351 3.76571 2.15768 -8.37733 5.21374 2.36321 0.36605
0.00271 0.9558 0.00306 181.93985 0 -3.73916 0.39298 2.81075 -5.84924 -38.03781 5.28037 3.25843 -1.88753 -73.05904 -74.29742 21.25451 77.1271 -18.2964 -3.05079 7.96917 61.10519 61.73599 21.95104 -75.71736 -30.31242 3.44777 -2.88195 5.79034 4.11349 -6.25082 -2.76911 -3.66542 -7.46515 -0.13358 3.72006 2.14716 -8.40105 5.19856 2.36736 0.36982
0.00302 0.95584 0.00373 181.94421 0 -3.73027 0.33608 2.79335 -5.78299 -38.00965 5.31028 3.20189 -1.8933 -73.06981 -74.24117 21.27834 77.21536 -18.27755 -3.07954 8.02895 61.12014 61.65613 21.93803 -75.6877 -30.27652 3.44846 -2.89256 5.73913 4.12518 -6.19782 -2.79491 -3.63413 -7.46044 -0.09817 3.67373 2.13273 -8.43378 5.18284 2.37154 0.37269
0.00334 0.95587 0.00454 181.94077 0 -3.72906 0.27677 2.78161 -5.73298 -37.9868 5.33858 3.1574 -1.86467 -73.09696 -74.15337 21.31066 77.2963 -18.26688 -3.09556 8.07103 61.12117 61.57936 21.9397 -75.71698 -30.24844 3.43359 -2.88624 5.68953 4.12986 -6.17546 -2.81554 -3.61227 -7.44985 -0.07548 3.62743 2.13035 -8.4448 5.16667 2.37441 0.37383
